<?xml version="1.0" standalone="no"?>
<!DOCTYPE svg PUBLIC "-//W3C//DTD SVG 20010904//EN"
 "http://www.w3.org/TR/2001/REC-SVG-20010904/DTD/svg10.dtd">
<svg version="1.0" xmlns="http://www.w3.org/2000/svg"
 width="282.000000pt" height="378.000000pt" viewBox="0 0 282.000000 378.000000"
 preserveAspectRatio="xMidYMid meet">

<g transform="translate(0.000000,378.000000) scale(0.100000,-0.100000)"
fill="#000000" stroke="none">
<path d="M880 2585 l0 -825 -345 0 c-190 0 -345 -3 -345 -6 0 -18 1153 -1455
1161 -1447 4 5 233 292 509 638 277 347 536 671 575 720 l72 90 -348 3 -349 2
0 825 0 825 -465 0 -465 0 0 -825z m700 -230 l0 -825 221 0 c173 0 220 -3 216
-13 -4 -10 -630 -801 -662 -835 -9 -10 -62 51 -256 294 -134 169 -248 312
-254 318 -35 39 -167 209 -171 221 -5 13 22 15 215 15 l221 0 0 825 0 825 235
0 235 0 0 -825z"/>
</g>
</svg>
