<?xml version="1.0" standalone="no"?>
<!DOCTYPE svg PUBLIC "-//W3C//DTD SVG 1.0//EN" "http://www.w3.org/TR/2001/REC-SVG-20010904/DTD/svg10.dtd">
<svg xmlns="http://www.w3.org/2000/svg" xmlns:xlink="http://www.w3.org/1999/xlink" id="body_1" width="34" height="45">

<g transform="matrix(0.11904763 0 0 0.11904763 0.42857215 -0)">
	<g transform="matrix(0.1 0 -0 -0.1 0 378)">
        <path d="M880 2585L880 1760L535 1760C 345 1760 190 1757 190 1754C 190 1736 1343 299 1351 307C 1355 312 1584 599 1860 945C 2137 1292 2396 1616 2435 1665L2435 1665L2507 1755L2159 1758L1810 1760L1810 2585L1810 3410L1345 3410L880 3410L880 2585zM1580 2355L1580 1530L1801 1530C 1974 1530 2021 1527 2017 1517C 2013 1507 1387 716 1355 682C 1346 672 1293 733 1099 976C 965 1145 851 1288 845 1294C 810 1333 678 1503 674 1515C 669 1528 696 1530 889 1530L889 1530L1110 1530L1110 2355L1110 3180L1345 3180L1580 3180L1580 2355z" stroke="none" fill="#000000" fill-rule="nonzero" />
	</g>
</g>
</svg>